<svg preserveAspectRatio="none" width="100%" height="100%" overflow="visible" style="display: block;" viewBox="0 0 17.5068 19.5078" fill="none" xmlns="http://www.w3.org/2000/svg">
<path id="Vector" fill-rule="evenodd" clip-rule="evenodd" d="M12.8916 0C13.5158 0 14.1142 0.248133 14.5547 0.688477L16.8174 2.95215C17.2578 3.39256 17.5067 3.99008 17.5068 4.61426V13.1553C17.5068 14.4537 16.4546 15.5057 15.1562 15.5059H12.5049V17.1572C12.5047 18.4555 11.4526 19.5076 10.1543 19.5078H2.35059C1.05216 19.5078 0.000189532 18.4556 0 17.1572V6.35254C4.35885e-05 5.05402 1.05207 4.002 2.35059 4.00195H5.00195V2.35059C5.00213 1.05218 6.0541 4.35855e-05 7.35254 0H12.8916ZM2.35059 5.50195C1.8805 5.502 1.50004 5.88245 1.5 6.35254V17.1572C1.50019 17.6272 1.88059 18.0078 2.35059 18.0078H10.1543C10.6242 18.0076 11.0047 17.6271 11.0049 17.1572V9.50391H8.55371C7.69739 9.50391 7.00306 8.80941 7.00293 7.95312V5.50195H2.35059ZM7.35254 1.5C6.88253 1.50004 6.50213 1.88061 6.50195 2.35059V4.00195H7.88965C8.51395 4.00195 9.1122 4.25001 9.55273 4.69043L11.8154 6.9541C12.2558 7.39456 12.5048 7.992 12.5049 8.61621V14.0059H15.1562C15.6262 14.0057 16.0068 13.6253 16.0068 13.1553V5.50195H13.5557C12.6993 5.50195 12.0049 4.80757 12.0049 3.95117V1.5H7.35254ZM8.50293 7.95312C8.50306 7.98098 8.52582 8.00391 8.55371 8.00391H10.7441L8.50293 5.7627V7.95312ZM13.5049 3.95117C13.5049 3.97914 13.5277 4.00195 13.5557 4.00195H15.7461L13.5049 1.76074V3.95117Z" fill="var(--fill-0, #8F94FF)"/>
</svg>
