<svg width="113" height="24" viewBox="0 0 113 24" fill="none" xmlns="http://www.w3.org/2000/svg">
<path id="Vector" d="M0 5.69334V11.3867H5.69338H11.3868V5.69334V-4.86374e-05H5.69338H0V5.69334Z" fill="#7D7B78"/>
<path id="Vector_2" d="M12.5868 0.061265C12.5518 0.0875425 12.5255 2.65394 12.5255 5.75465V11.3867H18.2189H23.9123V5.69334V-4.86374e-05H18.2802C15.1795 -4.86374e-05 12.6131 0.0262289 12.5868 0.061265Z" fill="#7D7B78"/>
<path id="Vector_3" d="M103.971 3.85424C103.051 4.0557 102.079 4.73891 101.667 5.49218C101.308 6.15787 101.168 6.84108 101.168 7.90092V8.83814L100.318 8.86442L99.4598 8.8907L99.4335 9.87171L99.4072 10.8615H100.292H101.168V15.022V19.1826H102.394H103.62V15.022V10.8615H105.416H107.212V13.5067C107.22 16.6687 107.282 17.2643 107.667 18.0439C107.991 18.6746 108.499 19.095 109.165 19.2789C109.725 19.4278 110.943 19.4016 111.574 19.2264L112.117 19.0687V18.0877V17.1067L111.617 17.2731C110.811 17.5446 110.181 17.3782 109.866 16.7914C109.725 16.5461 109.708 16.187 109.682 13.6819L109.655 10.8615H110.882H112.117V9.85419V8.8469H110.89H109.664V7.3491V5.85131L109.428 5.91262C109.287 5.9389 108.736 6.10532 108.201 6.27174L107.212 6.57831V7.7345V8.8907L105.407 8.86442L103.603 8.83814L103.629 7.81333C103.664 6.69217 103.778 6.36809 104.251 6.01773C104.575 5.78123 105.328 5.71992 105.845 5.8951L106.248 6.03524V4.99292C106.248 4.10825 106.23 3.95059 106.099 3.9068C105.836 3.80169 104.374 3.77541 103.971 3.85424Z" fill="#7D7B78"/>
<path id="Vector_4" d="M49.4356 4.72142C48.9801 5.00171 48.7612 5.3871 48.7612 5.92141C48.7612 6.77979 49.4093 7.33161 50.3466 7.25278C51.1436 7.18271 51.6341 6.67469 51.6341 5.91265C51.6341 5.3871 51.459 5.08054 50.9772 4.74769C50.6006 4.49368 49.8298 4.47616 49.4356 4.72142Z" fill="#7D7B78"/>
<path id="Vector_5" d="M31.0955 12.0002V19.1826H32.2779H33.4604L33.4429 13.6644C33.4254 10.6251 33.4429 8.14624 33.4692 8.14624C33.4954 8.14624 34.5115 10.6338 35.7378 13.6644L37.9626 19.1914L38.8385 19.1651L39.7144 19.1389L41.8779 13.682C43.0691 10.6776 44.0676 8.1988 44.0939 8.17252C44.1202 8.13748 44.1464 10.6075 44.1464 13.6469V19.1826H45.3727H46.599V12.0002V4.8178H44.9085H43.218L41.2122 9.74039C40.1085 12.4557 39.1275 14.8469 39.0399 15.0571L38.8647 15.4513L38.1027 13.5243C37.6823 12.4732 36.7363 10.082 36.0005 8.20756L34.6604 4.8178H32.8735H31.0955V12.0002Z" fill="#7D7B78"/>
<path id="Vector_6" d="M57.1097 8.80324C55.3316 9.20616 53.9389 10.4762 53.3433 12.2631C53.0718 13.0514 53.0017 14.7769 53.2032 15.6265C53.5185 16.9492 54.4732 18.228 55.5769 18.8061C56.9433 19.5156 58.9842 19.5856 60.4995 18.99L61.0075 18.7886L61.0513 17.6674C61.0776 17.0543 61.0863 16.555 61.0776 16.555C61.0688 16.555 60.806 16.6951 60.4907 16.8616C59.028 17.6762 57.39 17.536 56.4353 16.5287C55.717 15.7754 55.4367 14.6893 55.6207 13.4105C55.7959 12.193 56.4966 11.247 57.5126 10.8704C58.4674 10.5113 59.825 10.6777 60.7009 11.2733C60.8674 11.3784 61.025 11.4748 61.0513 11.4748C61.0776 11.4748 61.0863 10.9492 61.0688 10.301L61.0425 9.12733L60.4557 8.93463C59.6936 8.68061 57.9681 8.61054 57.1097 8.80324Z" fill="#7D7B78"/>
<path id="Vector_7" d="M67.5326 8.7686C66.6742 8.89122 65.9997 9.39049 65.5705 10.2226L65.3516 10.643L65.3428 9.74085V8.83867L64.1428 8.86494L62.9341 8.89122L62.9078 14.0328L62.8903 19.1831H64.1078H65.334L65.3603 16.0036L65.3866 12.8328L65.6318 12.3073C66.0172 11.4927 66.464 11.081 67.1296 10.9584C67.5764 10.8795 68.3034 10.9759 68.6887 11.1773L68.934 11.3087V10.1262C68.934 9.27662 68.899 8.92626 68.8289 8.8737C68.645 8.7686 67.953 8.70728 67.5326 8.7686Z" fill="#7D7B78"/>
<path id="Vector_8" d="M72.9721 8.80255C71.0714 9.23174 69.7225 10.5631 69.2407 12.4813C69.0393 13.2784 69.0305 14.8813 69.232 15.7134C69.6437 17.4565 70.9575 18.7791 72.7181 19.2433C73.4714 19.436 75.0042 19.436 75.81 19.2258C77.3779 18.8317 78.648 17.728 79.191 16.3091C79.5064 15.4419 79.6465 14.5047 79.5852 13.5324C79.4976 11.947 79.0772 10.9222 78.1837 10.0201C77.6232 9.46823 77.2202 9.21422 76.3794 8.91641C75.7312 8.67992 73.7867 8.61861 72.9721 8.80255ZM75.5473 10.896C76.1341 11.1587 76.6597 11.7719 76.8699 12.4113C77.0013 12.8142 77.0363 13.1733 77.0363 14.1018C77.0275 15.1266 77.0013 15.3543 76.8261 15.7923C76.5721 16.4404 76.2042 16.8521 75.6436 17.1412C75.2582 17.3426 75.083 17.3689 74.4086 17.3689C73.5414 17.3689 73.0685 17.22 72.5429 16.782C71.7196 16.0726 71.3429 14.3821 71.6933 12.893C71.9385 11.877 72.394 11.2638 73.1823 10.896C73.8042 10.5982 74.9254 10.5982 75.5473 10.896Z" fill="#7D7B78"/>
<path id="Vector_9" d="M83.3259 8.80274C82.2924 9.09179 81.3727 9.81879 81.0135 10.6246C80.7245 11.2816 80.7245 12.4728 81.0223 13.0947C81.3814 13.8304 81.7843 14.1458 83.3347 14.8903C84.1142 15.2669 84.8237 15.6611 84.9113 15.7574C85.139 16.0114 85.2004 16.6684 85.0164 16.9487C84.5172 17.7107 82.6602 17.6319 81.2675 16.7822L80.7595 16.4757V17.6581V18.8319L81.0748 18.9632C82.0471 19.3662 83.9215 19.4975 84.9463 19.2348C86.0763 18.9457 86.9084 18.3326 87.3288 17.4742C87.504 17.1063 87.539 16.9049 87.539 16.2041C87.539 15.5209 87.5128 15.3107 87.3551 15.0129C86.9171 14.1808 86.3566 13.7604 84.7799 13.0509C83.6237 12.5429 83.3084 12.2713 83.2383 11.7458C83.0719 10.5458 84.885 10.1954 86.6544 11.0889L87.0748 11.3078L87.0485 10.1867L87.0222 9.07427L86.4967 8.90785C85.7785 8.68012 83.9653 8.6188 83.3259 8.80274Z" fill="#7D7B78"/>
<path id="Vector_10" d="M92.4524 8.83748C91.2174 9.14404 90.1401 9.88856 89.5094 10.8696C88.5985 12.2973 88.397 14.6272 89.0364 16.3527C89.8247 18.4637 92.0583 19.6724 94.5897 19.3571C96.0349 19.1819 96.8232 18.8228 97.7079 17.9206C98.7765 16.8432 99.1882 15.7309 99.1882 13.9265C99.1882 12.1659 98.7765 11.0097 97.813 10.0375C97.1648 9.39806 96.6042 9.08273 95.6845 8.84624C94.8174 8.6185 93.3283 8.6185 92.4524 8.83748ZM95.2641 10.9221C95.7546 11.1849 96.2101 11.7104 96.4466 12.3148C96.613 12.7528 96.648 12.998 96.648 13.9703C96.6568 15.7659 96.2889 16.6068 95.2641 17.1235C94.7999 17.3513 94.651 17.3776 93.994 17.3776C93.0481 17.3688 92.4612 17.1411 91.9707 16.5805C91.4014 15.9235 91.2349 15.3805 91.2262 14.1017C91.2262 12.3499 91.6203 11.4915 92.6889 10.9484C93.2145 10.6856 93.2758 10.6769 94.0729 10.7032C94.7035 10.7294 94.9926 10.782 95.2641 10.9221Z" fill="#7D7B78"/>
<path id="Vector_11" d="M48.9634 14.0153V19.1831H50.1897H51.416L51.3985 14.0328L51.3722 8.89122L50.1722 8.86494L48.9634 8.83867V14.0153Z" fill="#7D7B78"/>
<path id="Vector_12" d="M0 18.3066V24H5.69338H11.3868V18.3066V12.6132H5.69338H0V18.3066Z" fill="#7D7B78"/>
<path id="Vector_13" d="M12.5432 18.2803L12.5694 23.9562L18.2453 23.9825L23.9124 24V18.3066V12.6132H18.219H12.5256L12.5432 18.2803Z" fill="#7D7B78"/>
</svg>
